<svg width="128" height="128" viewBox="0 0 128 128" fill="none" xmlns="http://www.w3.org/2000/svg">
<g clip-path="url(#clip0_467_29281)">
<rect width="128" height="128" transform="translate(0 128) rotate(-90)" fill="#1B1A14"/>
<g filter="url(#filter0_d_467_29281)">
<path d="M63.1686 5.87763C63.2986 4.96786 64.6126 4.96789 64.7426 5.87763L71.0955 50.3463L93.4629 33.5711C94.1982 33.0196 95.1274 33.9488 94.576 34.6841L77.9374 56.8676L122.031 63.1661C122.941 63.2961 122.941 64.6102 122.031 64.7402L77.9382 71.0387L94.576 93.2222C95.1273 93.9575 94.1982 94.8866 93.4629 94.3352L71.0955 77.5593L64.7426 122.029C64.6126 122.939 63.2986 122.939 63.1686 122.029L56.8623 77.8814L34.924 94.3352C34.1888 94.8866 33.2597 93.9575 33.811 93.2222L50.4023 71.1001L5.88007 64.7402C4.97033 64.6101 4.9703 63.2962 5.88007 63.1661L50.403 56.8055L33.8118 34.6841C33.2604 33.9489 34.1888 33.02 34.924 33.5711L56.8623 50.0242L63.1686 5.87763Z" fill="#FFFEEF"/>
</g>
</g>
<defs>
<filter id="filter0_d_467_29281" x="-8.80225" y="-6.43218" width="145.516" height="145.516" filterUnits="userSpaceOnUse" color-interpolation-filters="sRGB">
<feFlood flood-opacity="0" result="BackgroundImageFix"/>
<feColorMatrix in="SourceAlpha" type="matrix" values="0 0 0 0 0 0 0 0 0 0 0 0 0 0 0 0 0 0 127 0" result="hardAlpha"/>
<feOffset dy="2.37251"/>
<feGaussianBlur stdDeviation="7"/>
<feComposite in2="hardAlpha" operator="out"/>
<feColorMatrix type="matrix" values="0 0 0 0 0.956863 0 0 0 0 0.945098 0 0 0 0 0.792157 0 0 0 0.5 0"/>
<feBlend mode="normal" in2="BackgroundImageFix" result="effect1_dropShadow_467_29281"/>
<feBlend mode="normal" in="SourceGraphic" in2="effect1_dropShadow_467_29281" result="shape"/>
</filter>
<clipPath id="clip0_467_29281">
<rect width="128" height="128" fill="white" transform="translate(0 128) rotate(-90)"/>
</clipPath>
</defs>
</svg>
